<?xml version="1.0" encoding="UTF-8"?>
<svg width="512pt" height="512pt" version="1.1" viewBox="0 0 512 512" xmlns="http://www.w3.org/2000/svg">
 <path d="m322.62 240.12c-10.039-8.4414-25.141-7.2812-33.641 2.7188l-7.0195 8.2383c-0.26172 0.26172-0.62109 0.35938-0.98047 0.26172-9.2617-3.1211-26.52-11.879-37.879-35.539-0.10156-0.26172-0.058593-0.55859 0.16016-0.82031l8.7617-10.141c8.4414-9.7812 7.5195-24.781-2.1016-33.379l-19.559-17.66c-4.7617-4.3008-11-6.5-17.359-6.1016-6.3984 0.35938-12.281 3.2188-16.582 8.0391l-11.781 13.32c-5.2812 5.9414-8.4414 13.621-9.0195 21.559-1.1797 17 1.0781 60.359 47 96.398 3.8984 3.4805 37.02 32 74.18 32 7.2812 0 14.738-1.0781 22.121-3.6797 5.9414-2.1016 11.32-5.7383 15.461-10.539l11.52-13.359c4.1992-4.8594 6.2422-11.121 5.7383-17.52-0.51953-6.3984-3.4805-12.238-8.3984-16.379zm7.7812 38-11.52 13.359c-1.8008 2.1016-4.1406 3.6797-6.6992 4.6016-35.082 12.281-75.68-24.059-76.078-24.379l-0.57812-0.53906c-37.059-28.98-40.66-61.961-39.48-79.098 0.26172-3.4805 1.6406-6.8008 3.9414-9.3594l11.781-13.32c0.82031-0.92187 1.8398-1.1211 2.3984-1.1797h0.19922c0.55859 0 1.4805 0.16016 2.3008 0.87891l19.559 17.66c1.3789 1.2188 1.4805 3.3789 0.30078 4.8203l-8.7617 10.141c-5.5195 6.4609-6.8008 15.52-3.1211 23.102 14.602 30.422 37.48 41.879 49.82 46.078 8.3008 2.8203 17.398 0.30078 23.102-6.3398l7.0195-8.2383c1.2188-1.4414 3.3789-1.5781 4.8203-0.39844l20.641 17.461c0.98047 0.82031 1.1797 1.8398 1.2188 2.3594 0 0.39844-0.039063 1.4219-0.85938 2.3984z" fill="#512ad4"/>
 <path d="m262.6 66.961c-44.5 0-86.316 17.359-117.82 48.801-55.199 55.199-64.523 141.42-22.98 206.9l-31.379 96.977 92.559-39.68c64.621 35.219 145.1 23.801 197.48-28.559 64.977-64.977 64.977-170.64 0-235.62-31.48-31.5-73.32-48.82-117.86-48.82zm103.38 269.94c-47 47-119.92 56.422-177.16 22.84l-4.5-2.6797-60.52 25.961 20.539-63.477-2.8203-4.1406c-39.16-57.801-31.699-135.68 17.762-185.14 27.602-27.602 64.301-42.801 103.32-42.801 39.02 0 75.719 15.199 103.32 42.801 57 56.918 57 149.66 0.058593 206.64z" fill="#512ad4"/>
</svg>
